<svg id="Calque_1" data-name="Calque 1" xmlns="http://www.w3.org/2000/svg" viewBox="0 0 123.17 62.08"><defs><style>.cls-1{fill:#242935;}</style></defs><title>logo</title><g id="_1gcLFH" data-name="1gcLFH"><path class="cls-1" d="M83.44,32.12c1.44-1.93,2.78-3.77,4.2-5.55a1.3,1.3,0,0,1,1.16-.26,7.22,7.22,0,0,0,8.56-2.71c1.07-1.4,2.17-2.79,3.47-4.47H93.18c2-2.65,3.72-5,5.52-7.29.19-.26.74-.33,1.13-.33,3.92,0,7.85-.07,11.77,0a11.68,11.68,0,0,1,11.56,10.62c0,.32,0,.64,0,1h-7.29c-1.18-3.18-2.21-4-4.72-4.11a2,2,0,0,0-1.83,1c-2.24,3.1-4.41,6.27-6.88,9.18-4.68,5.52-10.83,6.37-17.54,3.68A13.65,13.65,0,0,1,83.44,32.12Z"/><path class="cls-1" d="M110.86,23.25l11.61,9.08-4.63,6-11.63-9.08Z"/><path class="cls-1" d="M106.48,4.57A4.52,4.52,0,0,1,111,0a4.58,4.58,0,0,1,4.55,4.53A4.56,4.56,0,0,1,111,9.09,4.49,4.49,0,0,1,106.48,4.57Z"/></g><path class="cls-1" d="M.44,8.25H4.21V28.8h6.2v3.43H.44Z"/><path class="cls-1" d="M10.85,32.67H0V7.81H4.65V28.36h6.2Zm-10-.88H10V29.24H3.77V8.69H.88Z"/><path class="cls-1" d="M12.22,8.25H22.5v3.42H16V18h5.17v3.43H16V28.8H22.5v3.43H12.22Z"/><path class="cls-1" d="M22.94,32.67H11.78V7.81H22.94v4.3H16.43v5.46H21.6v4.3H16.43v6.49h6.51Zm-10.28-.88h9.4V29.24H15.55V21h5.18V18.45H15.55V11.23h6.51V8.69h-9.4Z"/><path class="cls-1" d="M31.32,31a6.18,6.18,0,0,1-1.42-4.35V13.8a6.14,6.14,0,0,1,1.42-4.35A5.33,5.33,0,0,1,35.45,7.9a5.35,5.35,0,0,1,4.13,1.55A6.19,6.19,0,0,1,41,13.8v2.53H37.43V13.56c0-1.49-.62-2.23-1.88-2.23s-1.88.74-1.88,2.23V27c0,1.46.62,2.19,1.88,2.19s1.88-.73,1.88-2.19V23.29H41v3.39A6.22,6.22,0,0,1,39.58,31a5.34,5.34,0,0,1-4.13,1.54A5.33,5.33,0,0,1,31.32,31Z"/><path class="cls-1" d="M35.45,33A5.79,5.79,0,0,1,31,31.33a6.64,6.64,0,0,1-1.54-4.65V13.8A6.62,6.62,0,0,1,31,9.15a5.77,5.77,0,0,1,4.45-1.68A5.77,5.77,0,0,1,39.9,9.15a6.63,6.63,0,0,1,1.53,4.65v3H37V13.56c0-1.59-.78-1.79-1.45-1.79s-1.45.2-1.45,1.79V27c0,1.56.78,1.76,1.45,1.76S37,28.51,37,27v-4.1h4.43v3.83a6.65,6.65,0,0,1-1.53,4.65A5.8,5.8,0,0,1,35.45,33Zm0-24.67a5,5,0,0,0-3.81,1.4,5.84,5.84,0,0,0-1.3,4.06V26.68a5.81,5.81,0,0,0,1.3,4.05,4.89,4.89,0,0,0,3.81,1.4,4.92,4.92,0,0,0,3.8-1.4,5.77,5.77,0,0,0,1.31-4.05v-3H37.87V27c0,2.29-1.45,2.63-2.32,2.63s-2.32-.34-2.32-2.63V13.56c0-2.32,1.45-2.67,2.32-2.67s2.32.35,2.32,2.67v2.33h2.69V13.8a5.8,5.8,0,0,0-1.31-4.06A4.92,4.92,0,0,0,35.45,8.34Z"/><path class="cls-1" d="M43.26,8.25H47V28.8h6.2v3.43h-10Z"/><path class="cls-1" d="M53.67,32.67H42.82V7.81h4.64V28.36h6.21Zm-10-.88h9.09V29.24h-6.2V8.69H43.7Z"/><path class="cls-1" d="M56.35,31a6.36,6.36,0,0,1-1.44-4.47V8.25h3.77V26.81a2.64,2.64,0,0,0,.49,1.79,2.14,2.14,0,0,0,2.84,0,2.59,2.59,0,0,0,.5-1.79V8.25h3.63V26.54A6.4,6.4,0,0,1,64.71,31a5.44,5.44,0,0,1-4.19,1.56A5.38,5.38,0,0,1,56.35,31Z"/><path class="cls-1" d="M60.52,33a5.84,5.84,0,0,1-4.5-1.7h0a6.81,6.81,0,0,1-1.55-4.77V7.81h4.64v19a2.2,2.2,0,0,0,.39,1.49,1.38,1.38,0,0,0,1.09.41,1.4,1.4,0,0,0,1.1-.41,2.26,2.26,0,0,0,.38-1.49v-19h4.51V26.54A6.81,6.81,0,0,1,65,31.31,5.85,5.85,0,0,1,60.52,33ZM55.34,8.69V26.54a6,6,0,0,0,1.33,4.17h0a5,5,0,0,0,3.85,1.42,5,5,0,0,0,3.86-1.42,6,6,0,0,0,1.32-4.17V8.69H63V26.81a3,3,0,0,1-.61,2.08,2.55,2.55,0,0,1-3.49,0,3,3,0,0,1-.61-2.08V8.69Z"/><path class="cls-1" d="M68.81,8.25H74.5A5.78,5.78,0,0,1,78.75,9.6a5.71,5.71,0,0,1,1.33,4.16v1a6.63,6.63,0,0,1-.59,3,3.56,3.56,0,0,1-1.84,1.68v.06c1.88.64,2.81,2.31,2.81,5v2.05A5.73,5.73,0,0,1,79,30.77a5.8,5.8,0,0,1-4.27,1.46H68.81ZM74.06,18a2.24,2.24,0,0,0,1.69-.58,2.74,2.74,0,0,0,.57-1.95V14.14a3,3,0,0,0-.47-1.88,1.73,1.73,0,0,0-1.45-.59H72.58V18Zm.68,10.79a1.9,1.9,0,0,0,1.47-.53,2.71,2.71,0,0,0,.48-1.83V24.35a3.51,3.51,0,0,0-.56-2.28,2.41,2.41,0,0,0-1.87-.63H72.58V28.8Z"/><path class="cls-1" d="M74.74,32.67H68.38V7.81H74.5a6.2,6.2,0,0,1,4.56,1.48,6.15,6.15,0,0,1,1.46,4.47v1a7.07,7.07,0,0,1-.64,3.22,4.14,4.14,0,0,1-1.3,1.48c1.54.87,2.32,2.57,2.32,5.07v2.05a6.17,6.17,0,0,1-1.58,4.54A6.23,6.23,0,0,1,74.74,32.67Zm-5.49-.88h5.49a5.4,5.4,0,0,0,4-1.33A5.34,5.34,0,0,0,80,26.54V24.49c0-2.51-.82-4-2.51-4.59l-.3-.1v-.61l.27-.18a3.07,3.07,0,0,0,1.62-1.47,6.29,6.29,0,0,0,.55-2.82v-1a5.34,5.34,0,0,0-1.21-3.85A5.4,5.4,0,0,0,74.5,8.69H69.25Zm5.49-2.55h-2.6V21h2.12a2.8,2.8,0,0,1,2.19.78,3.79,3.79,0,0,1,.68,2.57v2.09a3.12,3.12,0,0,1-.59,2.13A2.35,2.35,0,0,1,74.74,29.24ZM73,28.36h1.72A1.48,1.48,0,0,0,75.89,28a2.29,2.29,0,0,0,.37-1.54V24.35a3,3,0,0,0-.46-2,2,2,0,0,0-1.54-.49H73Zm1-9.91H72.14V11.23H74.4a2.2,2.2,0,0,1,1.8.75,3.47,3.47,0,0,1,.55,2.16v1.34a3.11,3.11,0,0,1-.69,2.26A2.67,2.67,0,0,1,74.06,18.45Zm-1-.88h1a1.86,1.86,0,0,0,1.38-.45,2.37,2.37,0,0,0,.44-1.64V14.14a2.68,2.68,0,0,0-.37-1.61,1.33,1.33,0,0,0-1.11-.42H73Z"/><path class="cls-1" d="M.44,37.32H6.19a5.48,5.48,0,0,1,4.22,1.51,6.29,6.29,0,0,1,1.4,4.42V55.37a6.27,6.27,0,0,1-1.4,4.42A5.48,5.48,0,0,1,6.19,61.3H.44ZM6.13,57.88a1.86,1.86,0,0,0,1.42-.55A2.63,2.63,0,0,0,8,55.55V43.08a2.6,2.6,0,0,0-.49-1.78,1.82,1.82,0,0,0-1.42-.55H4.21V57.88Z"/><path class="cls-1" d="M6.19,61.74H0V36.88H6.19a6,6,0,0,1,4.54,1.65,6.71,6.71,0,0,1,1.52,4.72V55.37a6.7,6.7,0,0,1-1.52,4.72A5.92,5.92,0,0,1,6.19,61.74ZM.88,60.86H6.19a5.11,5.11,0,0,0,3.9-1.37,5.88,5.88,0,0,0,1.28-4.12V43.25a5.88,5.88,0,0,0-1.28-4.12,5.11,5.11,0,0,0-3.9-1.37H.88Zm5.25-2.55H3.77v-18H6.13A2.24,2.24,0,0,1,7.87,41a3,3,0,0,1,.61,2.08V55.55a3,3,0,0,1-.61,2.07A2.24,2.24,0,0,1,6.13,58.31Zm-1.48-.87H6.13A1.36,1.36,0,0,0,7.22,57a2.19,2.19,0,0,0,.39-1.48V43.08a2.2,2.2,0,0,0-.39-1.49,1.39,1.39,0,0,0-1.09-.4H4.65Z"/><path class="cls-1" d="M14.35,37.32H24.62v3.43H18.11v6.34h5.18v3.42H18.11v7.37h6.51V61.3H14.35Z"/><path class="cls-1" d="M25.06,61.74H13.91V36.88H25.06v4.31H18.55v5.46h5.18V51H18.55v6.49h6.51Zm-10.28-.88h9.41V58.31H17.68V50.07h5.17V47.52H17.68V40.31h6.51V37.76H14.78Z"/><path class="cls-1" d="M33.44,60.1A6.21,6.21,0,0,1,32,55.75V42.87a6.22,6.22,0,0,1,1.42-4.35A5.34,5.34,0,0,1,37.57,37a5.33,5.33,0,0,1,4.13,1.54,6.18,6.18,0,0,1,1.42,4.35v2.54H39.56V42.63c0-1.48-.63-2.23-1.88-2.23s-1.89.75-1.89,2.23V56c0,1.47.63,2.2,1.89,2.2s1.88-.73,1.88-2.2V52.36h3.56v3.39A6.16,6.16,0,0,1,41.7,60.1a5.33,5.33,0,0,1-4.13,1.54A5.34,5.34,0,0,1,33.44,60.1Z"/><path class="cls-1" d="M37.57,62.08a5.77,5.77,0,0,1-4.45-1.68,6.64,6.64,0,0,1-1.54-4.65V42.87a6.64,6.64,0,0,1,1.54-4.65,5.8,5.8,0,0,1,4.45-1.68A5.8,5.8,0,0,1,42,38.22a6.64,6.64,0,0,1,1.54,4.65v3H39.12V42.63c0-1.58-.77-1.79-1.44-1.79s-1.45.21-1.45,1.79V56c0,1.56.77,1.76,1.45,1.76s1.44-.2,1.44-1.76v-4.1h4.44v3.83A6.64,6.64,0,0,1,42,60.4,5.75,5.75,0,0,1,37.57,62.08Zm0-24.66a4.92,4.92,0,0,0-3.8,1.4,5.75,5.75,0,0,0-1.31,4V55.75a5.75,5.75,0,0,0,1.31,4,4.84,4.84,0,0,0,3.8,1.41,5,5,0,0,0,3.81-1.41,5.8,5.8,0,0,0,1.3-4v-3H40V56c0,2.29-1.46,2.64-2.32,2.64s-2.33-.35-2.33-2.64V42.63c0-2.32,1.46-2.66,2.33-2.66S40,40.31,40,42.63V45h2.68v-2.1a5.81,5.81,0,0,0-1.3-4A5,5,0,0,0,37.57,37.42Z"/><path class="cls-1" d="M46.65,60.07a6.29,6.29,0,0,1-1.47-4.45V43a6.25,6.25,0,0,1,1.47-4.45A5.5,5.5,0,0,1,50.9,37a5.52,5.52,0,0,1,4.25,1.58A6.25,6.25,0,0,1,56.62,43V55.62a6.29,6.29,0,0,1-1.47,4.45,5.55,5.55,0,0,1-4.25,1.57A5.53,5.53,0,0,1,46.65,60.07Zm6.2-4.22V42.77q0-2.37-2-2.37T49,42.77V55.85q0,2.37,1.95,2.37T52.85,55.85Z"/><path class="cls-1" d="M50.9,62.08a6,6,0,0,1-4.57-1.71h0a6.7,6.7,0,0,1-1.59-4.75V43a6.69,6.69,0,0,1,1.59-4.75,6,6,0,0,1,4.57-1.72,6,6,0,0,1,4.57,1.72A6.73,6.73,0,0,1,57.06,43V55.62a6.75,6.75,0,0,1-1.59,4.75A6,6,0,0,1,50.9,62.08Zm0-24.66A5.15,5.15,0,0,0,47,38.85,5.9,5.9,0,0,0,45.62,43V55.62A5.87,5.87,0,0,0,47,59.77h0a5.15,5.15,0,0,0,3.93,1.44,5.16,5.16,0,0,0,3.93-1.44,5.87,5.87,0,0,0,1.35-4.15V43a5.9,5.9,0,0,0-1.35-4.16A5.16,5.16,0,0,0,50.9,37.42Zm0,21.24c-.89,0-2.39-.37-2.39-2.81V42.77c0-2.44,1.5-2.8,2.39-2.8s2.39.36,2.39,2.8V55.85C53.29,58.29,51.79,58.66,50.9,58.66Zm0-17.82c-.71,0-1.52.22-1.52,1.93V55.85c0,1.71.81,1.93,1.52,1.93s1.51-.22,1.51-1.93V42.77C52.41,41.06,51.6,40.84,50.9,40.84Z"/><path class="cls-1" d="M60.46,60.09A6.31,6.31,0,0,1,59,55.62V37.32h3.76V55.89a2.63,2.63,0,0,0,.5,1.78,2.11,2.11,0,0,0,2.84,0,2.63,2.63,0,0,0,.5-1.78V37.32h3.63v18.3a6.36,6.36,0,0,1-1.44,4.47,5.43,5.43,0,0,1-4.18,1.55A5.41,5.41,0,0,1,60.46,60.09Z"/><path class="cls-1" d="M64.63,62.08a5.84,5.84,0,0,1-4.5-1.7h0a6.8,6.8,0,0,1-1.55-4.76V36.88h4.64v19a2.24,2.24,0,0,0,.39,1.49,1.38,1.38,0,0,0,1.09.4,1.4,1.4,0,0,0,1.1-.4,2.3,2.3,0,0,0,.38-1.49v-19h4.51V55.62a6.8,6.8,0,0,1-1.55,4.76A5.87,5.87,0,0,1,64.63,62.08ZM59.45,37.76V55.62a6,6,0,0,0,1.33,4.17h0a5,5,0,0,0,3.85,1.42,5,5,0,0,0,3.86-1.42,6,6,0,0,0,1.32-4.17V37.76H67.06V55.89A3,3,0,0,1,66.45,58,2.53,2.53,0,0,1,63,58a3,3,0,0,1-.61-2.07V37.76Z"/><path class="cls-1" d="M72.93,37.32h5.58a5.78,5.78,0,0,1,4.25,1.35,5.74,5.74,0,0,1,1.33,4.17v1.47q0,3.73-2.46,4.73v.07a2.91,2.91,0,0,1,1.93,1.67,8.44,8.44,0,0,1,.57,3.4v4.21a14.91,14.91,0,0,0,.07,1.66,4.09,4.09,0,0,0,.34,1.25H80.7a5,5,0,0,1-.27-1.09,15.48,15.48,0,0,1-.07-1.85V54a3.72,3.72,0,0,0-.53-2.29A2.25,2.25,0,0,0,78,51h-1.3V61.3H72.93ZM78.06,47.6a2.3,2.3,0,0,0,1.7-.58,2.75,2.75,0,0,0,.57-2V43.21a3,3,0,0,0-.47-1.88,1.73,1.73,0,0,0-1.45-.58H76.69V47.6Z"/><path class="cls-1" d="M85.21,61.74H80.39l-.1-.29a5.61,5.61,0,0,1-.3-1.19,16.49,16.49,0,0,1-.07-1.9V54a3.23,3.23,0,0,0-.43-2,1.9,1.9,0,0,0-1.5-.49h-.86V61.74H72.49V36.88h6a6.18,6.18,0,0,1,4.56,1.49,6.14,6.14,0,0,1,1.46,4.47v1.47c0,2.26-.66,3.85-2,4.72A3.31,3.31,0,0,1,84,50.61a8.88,8.88,0,0,1,.61,3.57v4.21c0,.69,0,1.21.06,1.61a3.54,3.54,0,0,0,.31,1.12ZM81,60.86h2.89a5.1,5.1,0,0,1-.15-.76,15.55,15.55,0,0,1-.07-1.71V54.18A8.11,8.11,0,0,0,83.16,51a2.46,2.46,0,0,0-1.66-1.43l-.31-.1v-.62l.27-.18c1.48-.59,2.2-2,2.2-4.32V42.84A5.36,5.36,0,0,0,82.45,39a5.42,5.42,0,0,0-3.94-1.22H73.36v23.1h2.9V50.59H78a2.66,2.66,0,0,1,2.18.81A4.09,4.09,0,0,1,80.8,54v4.39a16.14,16.14,0,0,0,.06,1.79A5.44,5.44,0,0,0,81,60.86ZM78.06,48h-1.8V40.31h2.15a2.17,2.17,0,0,1,1.8.75,3.44,3.44,0,0,1,.55,2.15v1.85a3.15,3.15,0,0,1-.68,2.26A2.69,2.69,0,0,1,78.06,48Zm-.93-.88h.93a1.87,1.87,0,0,0,1.39-.45,2.4,2.4,0,0,0,.44-1.65V43.21a2.72,2.72,0,0,0-.37-1.61,1.33,1.33,0,0,0-1.11-.41H77.13Z"/><path class="cls-1" d="M87.48,60.09a6.49,6.49,0,0,1-1.4-4.47V54.24h3.56v1.65c0,1.55.65,2.33,2,2.33a1.83,1.83,0,0,0,1.46-.57,2.74,2.74,0,0,0,.5-1.83,5.09,5.09,0,0,0-.69-2.66,12.82,12.82,0,0,0-2.53-2.75,15.1,15.1,0,0,1-3.26-3.72,7.66,7.66,0,0,1-.92-3.75,6.24,6.24,0,0,1,1.44-4.4A5.4,5.4,0,0,1,91.77,37a5.18,5.18,0,0,1,4.09,1.56A6.54,6.54,0,0,1,97.25,43v1H93.68V42.77a2.83,2.83,0,0,0-.47-1.8,1.75,1.75,0,0,0-1.41-.57c-1.26,0-1.88.77-1.88,2.3a4.49,4.49,0,0,0,.7,2.43,13.3,13.3,0,0,0,2.55,2.74,13.92,13.92,0,0,1,3.25,3.74,8.19,8.19,0,0,1,.9,3.94,6.43,6.43,0,0,1-1.46,4.52,5.47,5.47,0,0,1-4.23,1.57A5.33,5.33,0,0,1,87.48,60.09Z"/><path class="cls-1" d="M91.63,62.08a5.73,5.73,0,0,1-4.47-1.7h0a6.89,6.89,0,0,1-1.52-4.76V53.81h4.44v2.08c0,1.67.81,1.89,1.51,1.89a1.41,1.41,0,0,0,1.13-.42,2.34,2.34,0,0,0,.39-1.54,4.7,4.7,0,0,0-.62-2.43A12.77,12.77,0,0,0,90,50.74a15.78,15.78,0,0,1-3.35-3.83,8.08,8.08,0,0,1-1-4,6.71,6.71,0,0,1,1.55-4.7,5.85,5.85,0,0,1,4.51-1.7,5.65,5.65,0,0,1,4.42,1.7A7,7,0,0,1,97.68,43v1.43H93.25V42.77a2.4,2.4,0,0,0-.38-1.52,1.34,1.34,0,0,0-1.07-.41c-.67,0-1.45.22-1.45,1.86A4.14,4.14,0,0,0,91,44.9a13,13,0,0,0,2.47,2.64,14.83,14.83,0,0,1,3.35,3.86,8.7,8.7,0,0,1,.94,4.15,6.86,6.86,0,0,1-1.57,4.82A5.93,5.93,0,0,1,91.63,62.08Zm-3.82-2.29a4.86,4.86,0,0,0,3.82,1.42,5,5,0,0,0,3.91-1.44,6,6,0,0,0,1.34-4.22A8,8,0,0,0,96,51.81a13.8,13.8,0,0,0-3.16-3.61,13.61,13.61,0,0,1-2.63-2.84,5,5,0,0,1-.77-2.66c0-2.38,1.45-2.73,2.32-2.73a2.19,2.19,0,0,1,1.74.71,3.18,3.18,0,0,1,.58,2.09v.79h2.69V43a6.11,6.11,0,0,0-1.28-4.18,4.78,4.78,0,0,0-3.76-1.41,5,5,0,0,0-3.86,1.41,5.89,5.89,0,0,0-1.32,4.11,7.27,7.27,0,0,0,.86,3.54,15.06,15.06,0,0,0,3.17,3.6,13,13,0,0,1,2.62,2.86A5.59,5.59,0,0,1,94,55.82a3.1,3.1,0,0,1-.61,2.12,2.26,2.26,0,0,1-1.79.72c-.89,0-2.39-.36-2.39-2.77V54.68H86.52v.94a6,6,0,0,0,1.29,4.17Z"/><path class="cls-1" d="M99.47,37.32h10.28v3.43h-6.51v6.34h5.18v3.42h-5.18v7.37h6.51V61.3H99.47Z"/><path class="cls-1" d="M110.19,61.74H99V36.88h11.15v4.31h-6.51v5.46h5.17V51h-5.17v6.49h6.51Zm-10.28-.88h9.4V58.31H102.8V50.07H108V47.52H102.8V40.31h6.51V37.76h-9.4Z"/></svg>